<mxfile host="Electron" agent="Mozilla/5.0 (X11; Linux x86_64) AppleWebKit/537.36 (KHTML, like Gecko) draw.io/26.0.4 Chrome/128.0.6613.186 Electron/32.2.5 Safari/537.36" version="26.0.4">
  <diagram name="Page-1" id="sQ8tdeLtbKs7t5tln4BO">
    <mxGraphModel dx="928" dy="998" grid="1" gridSize="10" guides="1" tooltips="1" connect="1" arrows="1" fold="1" page="1" pageScale="1" pageWidth="850" pageHeight="1100" math="0" shadow="0">
      <root>
        <mxCell id="0" />
        <mxCell id="1" parent="0" />
        <mxCell id="ZKCXFV2EU_ygjn1YApQF-13" style="edgeStyle=orthogonalEdgeStyle;rounded=0;orthogonalLoop=1;jettySize=auto;html=1;" edge="1" parent="1">
          <mxGeometry relative="1" as="geometry">
            <mxPoint x="181" y="519" as="sourcePoint" />
            <mxPoint x="253" y="519" as="targetPoint" />
          </mxGeometry>
        </mxCell>
        <mxCell id="ZKCXFV2EU_ygjn1YApQF-1" value="S3 Storage Lens" style="sketch=0;outlineConnect=0;fontColor=#232F3E;gradientColor=none;fillColor=#7AA116;strokeColor=none;dashed=0;verticalLabelPosition=bottom;verticalAlign=top;align=center;html=1;fontSize=12;fontStyle=0;aspect=fixed;pointerEvents=1;shape=mxgraph.aws4.s3_storage_lens;" vertex="1" parent="1">
          <mxGeometry x="91" y="480" width="78" height="78" as="geometry" />
        </mxCell>
        <mxCell id="ZKCXFV2EU_ygjn1YApQF-2" value="AWS Organizations" style="sketch=0;points=[[0,0,0],[0.25,0,0],[0.5,0,0],[0.75,0,0],[1,0,0],[0,1,0],[0.25,1,0],[0.5,1,0],[0.75,1,0],[1,1,0],[0,0.25,0],[0,0.5,0],[0,0.75,0],[1,0.25,0],[1,0.5,0],[1,0.75,0]];points=[[0,0,0],[0.25,0,0],[0.5,0,0],[0.75,0,0],[1,0,0],[0,1,0],[0.25,1,0],[0.5,1,0],[0.75,1,0],[1,1,0],[0,0.25,0],[0,0.5,0],[0,0.75,0],[1,0.25,0],[1,0.5,0],[1,0.75,0]];outlineConnect=0;fontColor=#232F3E;fillColor=#E7157B;strokeColor=#ffffff;dashed=0;verticalLabelPosition=bottom;verticalAlign=top;align=center;html=1;fontSize=12;fontStyle=0;aspect=fixed;shape=mxgraph.aws4.resourceIcon;resIcon=mxgraph.aws4.organizations;" vertex="1" parent="1">
          <mxGeometry x="261" y="370" width="78" height="78" as="geometry" />
        </mxCell>
        <mxCell id="ZKCXFV2EU_ygjn1YApQF-3" value="Accounts" style="sketch=0;outlineConnect=0;fontColor=#232F3E;gradientColor=none;fillColor=#E7157B;strokeColor=none;dashed=0;verticalLabelPosition=bottom;verticalAlign=top;align=center;html=1;fontSize=12;fontStyle=0;aspect=fixed;pointerEvents=1;shape=mxgraph.aws4.organizations_account2;" vertex="1" parent="1">
          <mxGeometry x="261" y="480" width="78" height="78" as="geometry" />
        </mxCell>
        <mxCell id="ZKCXFV2EU_ygjn1YApQF-5" value="Buckets" style="sketch=0;outlineConnect=0;fontColor=#232F3E;gradientColor=none;fillColor=#7AA116;strokeColor=none;dashed=0;verticalLabelPosition=bottom;verticalAlign=top;align=center;html=1;fontSize=12;fontStyle=0;aspect=fixed;pointerEvents=1;shape=mxgraph.aws4.bucket;" vertex="1" parent="1">
          <mxGeometry x="264" y="590" width="75" height="78" as="geometry" />
        </mxCell>
        <mxCell id="ZKCXFV2EU_ygjn1YApQF-6" value="Cost Efficiency" style="image;aspect=fixed;html=1;points=[];align=center;fontSize=12;image=img/lib/azure2/general/Cost_Budgets.svg;" vertex="1" parent="1">
          <mxGeometry x="686.5" y="595" width="67" height="68" as="geometry" />
        </mxCell>
        <mxCell id="ZKCXFV2EU_ygjn1YApQF-17" style="edgeStyle=orthogonalEdgeStyle;rounded=0;orthogonalLoop=1;jettySize=auto;html=1;" edge="1" parent="1" source="ZKCXFV2EU_ygjn1YApQF-7" target="ZKCXFV2EU_ygjn1YApQF-10">
          <mxGeometry relative="1" as="geometry">
            <Array as="points">
              <mxPoint x="511" y="629" />
              <mxPoint x="511" y="519" />
            </Array>
          </mxGeometry>
        </mxCell>
        <mxCell id="ZKCXFV2EU_ygjn1YApQF-7" value="" style="sketch=0;outlineConnect=0;fontColor=#232F3E;gradientColor=none;fillColor=#232F3D;strokeColor=none;dashed=0;verticalLabelPosition=bottom;verticalAlign=top;align=center;html=1;fontSize=12;fontStyle=0;aspect=fixed;pointerEvents=1;shape=mxgraph.aws4.document;" vertex="1" parent="1">
          <mxGeometry x="431" y="590" width="57" height="78" as="geometry" />
        </mxCell>
        <mxCell id="ZKCXFV2EU_ygjn1YApQF-15" style="edgeStyle=orthogonalEdgeStyle;rounded=0;orthogonalLoop=1;jettySize=auto;html=1;" edge="1" parent="1" source="ZKCXFV2EU_ygjn1YApQF-8" target="ZKCXFV2EU_ygjn1YApQF-10">
          <mxGeometry relative="1" as="geometry">
            <Array as="points">
              <mxPoint x="511" y="409" />
              <mxPoint x="511" y="519" />
            </Array>
          </mxGeometry>
        </mxCell>
        <mxCell id="ZKCXFV2EU_ygjn1YApQF-8" value="" style="sketch=0;outlineConnect=0;fontColor=#232F3E;gradientColor=none;fillColor=#232F3D;strokeColor=none;dashed=0;verticalLabelPosition=bottom;verticalAlign=top;align=center;html=1;fontSize=12;fontStyle=0;aspect=fixed;pointerEvents=1;shape=mxgraph.aws4.document;" vertex="1" parent="1">
          <mxGeometry x="431" y="370" width="57" height="78" as="geometry" />
        </mxCell>
        <mxCell id="ZKCXFV2EU_ygjn1YApQF-16" style="edgeStyle=orthogonalEdgeStyle;rounded=0;orthogonalLoop=1;jettySize=auto;html=1;" edge="1" parent="1" source="ZKCXFV2EU_ygjn1YApQF-9" target="ZKCXFV2EU_ygjn1YApQF-10">
          <mxGeometry relative="1" as="geometry" />
        </mxCell>
        <mxCell id="ZKCXFV2EU_ygjn1YApQF-9" value="" style="sketch=0;outlineConnect=0;fontColor=#232F3E;gradientColor=none;fillColor=#232F3D;strokeColor=none;dashed=0;verticalLabelPosition=bottom;verticalAlign=top;align=center;html=1;fontSize=12;fontStyle=0;aspect=fixed;pointerEvents=1;shape=mxgraph.aws4.document;" vertex="1" parent="1">
          <mxGeometry x="431" y="480" width="57" height="78" as="geometry" />
        </mxCell>
        <mxCell id="ZKCXFV2EU_ygjn1YApQF-10" value="" style="sketch=0;outlineConnect=0;fontColor=#232F3E;gradientColor=none;fillColor=#232F3D;strokeColor=none;dashed=0;verticalLabelPosition=bottom;verticalAlign=top;align=center;html=1;fontSize=12;fontStyle=0;aspect=fixed;pointerEvents=1;shape=mxgraph.aws4.documents3;" vertex="1" parent="1">
          <mxGeometry x="534" y="480" width="57" height="78" as="geometry" />
        </mxCell>
        <mxCell id="ZKCXFV2EU_ygjn1YApQF-11" value="Symmary Insights" style="sketch=0;outlineConnect=0;fontColor=#232F3E;gradientColor=none;fillColor=light-dark(#00e038, #bec8d4);strokeColor=none;dashed=0;verticalLabelPosition=bottom;verticalAlign=top;align=center;html=1;fontSize=12;fontStyle=0;aspect=fixed;pointerEvents=1;shape=mxgraph.aws4.document;" vertex="1" parent="1">
          <mxGeometry x="691.5" y="370" width="57" height="78" as="geometry" />
        </mxCell>
        <mxCell id="ZKCXFV2EU_ygjn1YApQF-12" value="Data Protection" style="sketch=0;outlineConnect=0;fontColor=#232F3E;gradientColor=none;fillColor=#232F3D;strokeColor=none;dashed=0;verticalLabelPosition=bottom;verticalAlign=top;align=center;html=1;fontSize=12;fontStyle=0;aspect=fixed;pointerEvents=1;shape=mxgraph.aws4.shield2;" vertex="1" parent="1">
          <mxGeometry x="681" y="480" width="78" height="78" as="geometry" />
        </mxCell>
        <mxCell id="ZKCXFV2EU_ygjn1YApQF-14" style="edgeStyle=orthogonalEdgeStyle;rounded=0;orthogonalLoop=1;jettySize=auto;html=1;" edge="1" parent="1">
          <mxGeometry relative="1" as="geometry">
            <mxPoint x="351" y="518.76" as="sourcePoint" />
            <mxPoint x="423" y="518.76" as="targetPoint" />
          </mxGeometry>
        </mxCell>
        <mxCell id="ZKCXFV2EU_ygjn1YApQF-19" style="edgeStyle=orthogonalEdgeStyle;rounded=0;orthogonalLoop=1;jettySize=auto;html=1;" edge="1" parent="1">
          <mxGeometry relative="1" as="geometry">
            <mxPoint x="601" y="518.76" as="sourcePoint" />
            <mxPoint x="673" y="518.76" as="targetPoint" />
          </mxGeometry>
        </mxCell>
        <mxCell id="ZKCXFV2EU_ygjn1YApQF-20" value="Configure" style="text;html=1;align=center;verticalAlign=middle;resizable=0;points=[];autosize=1;strokeColor=none;fillColor=none;fontSize=13;fontStyle=1" vertex="1" parent="1">
          <mxGeometry x="261.5" y="312" width="80" height="30" as="geometry" />
        </mxCell>
        <mxCell id="ZKCXFV2EU_ygjn1YApQF-22" value="&lt;span style=&quot;color: rgb(35, 47, 62);&quot;&gt;Aggregate&lt;/span&gt;" style="text;html=1;align=center;verticalAlign=middle;resizable=0;points=[];autosize=1;strokeColor=none;fillColor=none;fontSize=13;fontStyle=1" vertex="1" parent="1">
          <mxGeometry x="419.5" y="312" width="80" height="30" as="geometry" />
        </mxCell>
        <mxCell id="ZKCXFV2EU_ygjn1YApQF-23" value="&lt;span style=&quot;color: rgb(35, 47, 62);&quot;&gt;Analyze&lt;/span&gt;&lt;div style=&quot;color: rgb(35, 47, 62);&quot;&gt;(Dashboard)&lt;/div&gt;" style="text;html=1;align=center;verticalAlign=middle;resizable=0;points=[];autosize=1;strokeColor=none;fillColor=none;fontSize=13;fontStyle=1" vertex="1" parent="1">
          <mxGeometry x="512.5" y="307" width="100" height="40" as="geometry" />
        </mxCell>
        <mxCell id="ZKCXFV2EU_ygjn1YApQF-24" value="Optimize" style="text;html=1;align=center;verticalAlign=middle;resizable=0;points=[];autosize=1;strokeColor=none;fillColor=none;fontSize=13;fontStyle=1" vertex="1" parent="1">
          <mxGeometry x="685" y="312" width="70" height="30" as="geometry" />
        </mxCell>
      </root>
    </mxGraphModel>
  </diagram>
</mxfile>
